<?xml version="1.0" encoding="utf-8"?>
<!-- Generator: Adobe Illustrator 23.0.3, SVG Export Plug-In . SVG Version: 6.00 Build 0)  -->
<svg version="1.1"
	 id="svg2" inkscape:version="0.91 r13725" sodipodi:docname="Netflix 2014.svg" xmlns:cc="http://creativecommons.org/ns#" xmlns:dc="http://purl.org/dc/elements/1.1/" xmlns:inkscape="http://www.inkscape.org/namespaces/inkscape" xmlns:rdf="http://www.w3.org/1999/02/22-rdf-syntax-ns#" xmlns:sodipodi="http://sodipodi.sourceforge.net/DTD/sodipodi-0.dtd" xmlns:svg="http://www.w3.org/2000/svg"
	 xmlns="http://www.w3.org/2000/svg" xmlns:xlink="http://www.w3.org/1999/xlink" x="0px" y="0px" viewBox="0 0 1000 268.7"
	 style="enable-background:new 0 0 1000 268.7;" xml:space="preserve">
<style type="text/css">
	.st0{fill:#DB202C;}
</style>
<g>
	<path class="st0" d="M94.9,152.1L40,0H0v268.7c14-2,28-3.9,42.1-5.7V116.8l48.8,140.1c15.3-1.8,30.7-3.5,46.1-5V0H94.9L94.9,152.1z
		"/>
	<path class="st0" d="M177.5,248c38.8-3.5,77.8-6.4,117-8.7v-41.5c-25,1.4-50,3.2-74.9,5.1v-62.8c16.3-0.2,37.8-0.7,56.9-0.4V98.2
		c-15.2,0-39.7,0.2-56.9,0.4V41.9h74.9V0h-117V248z"/>
	<path class="st0" d="M321.4,41.9h44.1v194c14-0.5,28.1-1,42.1-1.3V41.9h44.1V0H321.4L321.4,41.9z"/>
	<polygon class="st0" points="478.7,233.4 520.8,233.4 520.8,137.6 577.9,137.6 577.9,96.1 520.8,96.1 520.8,41.9 596.3,41.9 
		596.3,0 478.7,0 	"/>
	<path class="st0" d="M665.3,0h-42.1v235.5c38.3,1.3,76.4,3.2,114.3,5.8v-41.5c-24-1.6-48.1-3-72.2-4.1V0z"/>
	<path class="st0" d="M772.3,243.8c14.1,1.1,28.1,2.2,42.1,3.5V0h-42.1V243.8z"/>
	<path class="st0" d="M1000,0h-46.3l-30.5,70.7L895.9,0h-45.6l49,126.3l-53.5,123.9c14.8,1.4,29.5,3,44.3,4.6l31.1-72l30.8,79.4
		c16,2.1,32,4.2,48,6.5l0.1,0l-54.8-141.5L1000,0z"/>
</g>
</svg>
